#!OML:ASF H:\Dans Jumps\Project 1\Capture day 1\Session 1\subject.ASF
:FULLY-SPECIFIED
:DEGREES
466
root 0.168929 17.329 -6.43283 8.02419 -0.348189 -0.647443
lowerback 3.40403 0.140823 -0.705862
upperback 5.65402 0.144021 1.28464
thorax 3.91371 0.0132172 1.72048
lowerneck -12.231 0.148004 -1.38038
upperneck 35.0496 0.398989 0.562755
head 13.9606 0.067808 0.5323
rclavicle 3.8763e-015 1.31198e-014
rhumerus -42.0508 -22.296 -66.8266
rradius 25.3984
rwrist 33.3063
rhand -18.2656 -22.5431
rfingers 7.12502
rthumb 8.01403 -52.3712
lclavicle 3.8763e-015 1.31198e-014
lhumerus -36.4939 3.97684 79.9754
lradius 20.4727
lwrist 14.0525
lhand -29.8181 -10.7614
lfingers 7.12502
lthumb -3.14183 19.1952
rfemur -21.8524 -2.71582 18.9721
rtibia 35.1807
rfoot -19.7894 -1.58365
rtoes 6.82261
lfemur -20.6229 5.83004 -19.0623
ltibia 31.9247
lfoot -15.9953 9.48187
ltoes 1.37855
467
root 0.169958 17.3293 -6.43457 8.01872 -0.346789 -0.643025
lowerback 3.40323 0.13946 -0.708253
upperback 5.65861 0.142272 1.28083
thorax 3.91903 0.0122757 1.7179
lowerneck -12.2357 0.152323 -1.37839
upperneck 35.0555 0.405365 0.56153
head 13.9642 0.0706053 0.532469
rclavicle 9.93923e-016 -6.95746e-015
rhumerus -41.9967 -22.2936 -66.8623
rradius 25.3919
rwrist 33.3909
rhand -18.4039 -22.5571
rfingers 7.12502
rthumb 7.88047 -52.3903
lclavicle 9.93923e-016 -6.95746e-015
lhumerus -36.4634 3.99048 80.0005
lradius 20.4465
lwrist 14.0219
lhand -29.9455 -11.0489
lfingers 7.12502
lthumb -3.26482 18.9058
rfemur -21.8448 -2.70569 18.9622
rtibia 35.1662
rfoot -19.7808 -1.5952
rtoes 6.8166
lfemur -20.616 5.84186 -19.0717
ltibia 31.9067
lfoot -15.9882 9.46395
ltoes 1.38886
468
root 0.171021 17.3298 -6.43615 8.01328 -0.345356 -0.637806
lowerback 3.40038 0.138126 -0.709916
upperback 5.66237 0.140612 1.27579
thorax 3.92462 0.0114393 1.71367
lowerneck -12.2273 0.153693 -1.38229
upperneck 35.0522 0.407469 0.564006
head 13.9608 0.0713389 0.534421
rclavicle -5.96354e-016 1.98785e-015
rhumerus -41.9444 -22.276 -66.9085
rradius 25.4057
rwrist 33.4375
rhand -18.4921 -22.5824
rfingers 7.12502
rthumb 7.79536 -52.4187
lclavicle -5.96354e-016 1.98785e-015
lhumerus -36.4337 4.00867 80.0201
lradius 20.4316
lwrist 14.0112
lhand -30.025 -11.1996
lfingers 7.12502
lthumb -3.34156 18.7539
rfemur -21.8357 -2.6969 18.9512
rtibia 35.1503
rfoot -19.7725 -1.60497
rtoes 6.82291
lfemur -20.607 5.85574 -19.082
ltibia 31.8876
lfoot -15.9839 9.44339
ltoes 1.40578
469
root 0.172085 17.3303 -6.43769 8.00845 -0.345971 -0.632797
lowerback 3.3977 0.137414 -0.711369
upperback 5.66422 0.139809 1.27023
thorax 3.92809 0.0110763 1.70875
lowerneck -12.2197 0.156425 -1.38356
upperneck 35.0526 0.411749 0.564056
head 13.9592 0.0730112 0.535287
rclavicle 7.95139e-016 7.15625e-015
rhumerus -41.8956 -22.2278 -66.9721
rradius 25.4553
rwrist 33.3952
rhand -18.4983 -22.6139
rfingers 7.12502
rthumb 7.78938 -52.4504
lclavicle 7.95139e-016 7.15625e-015
lhumerus -36.4056 4.03152 80.0333
lradius 20.4404
lwrist 14.0359
lhand -30.0197 -11.1367
lfingers 7.12502
lthumb -3.33644 18.817
rfemur -21.8271 -2.6856 18.9403
rtibia 35.1343
rfoot -19.7634 -1.61506
rtoes 6.83805
lfemur -20.5974 5.87304 -19.0922
ltibia 31.8673
lfoot -15.9811 9.42044
ltoes 1.42723
470
root 0.173163 17.3309 -6.43914 8.00481 -0.34835 -0.629111
lowerback 3.39356 0.138113 -0.710003
upperback 5.66358 0.140944 1.26389
thorax 3.92971 0.0118392 1.70145
lowerneck -12.2045 0.158852 -1.3832
upperneck 35.0521 0.415548 0.56263
head 13.9555 0.0745175 0.535165
rclavicle 4.96962e-016 2.98177e-015
rhumerus -41.8499 -22.1913 -67.0284
rradius 25.516
rwrist 33.304
rhand -18.4278 -22.6379
rfingers 7.12502
rthumb 7.85745 -52.4719
lclavicle 4.96962e-016 2.98177e-015
lhumerus -36.38 4.05234 80.0426
lradius 20.4624
lwrist 14.0795
lhand -29.9588 -10.9526
lfingers 7.12502
lthumb -3.27767 19.0019
rfemur -21.8193 -2.67257 18.9307
rtibia 35.1183
rfoot -19.7546 -1.62427
rtoes 6.86476
lfemur -20.5878 5.89389 -19.1013
ltibia 31.8471
lfoot -15.9813 9.39482
ltoes 1.4574
471
root 0.174245 17.3316 -6.44057 8.00318 -0.35184 -0.622736
lowerback 3.38758 0.139287 -0.711358
upperback 5.6613 0.142731 1.25676
thorax 3.93063 0.0128509 1.69485
lowerneck -12.1899 0.161443 -1.38257
upperneck 35.0533 0.420058 0.559767
head 13.9527 0.0761696 0.534539
rclavicle 9.93923e-016 -3.97569e-016
rhumerus -41.8065 -22.1494 -67.0869
rradius 25.5862
rwrist 33.1783
rhand -18.3293 -22.6585
rfingers 7.12502
rthumb 7.9525 -52.4889
lclavicle 9.93923e-016 -3.97569e-016
lhumerus -36.3548 4.07403 80.0497
lradius 20.4941
lwrist 14.1303
lhand -29.8562 -10.6826
lfingers 7.12502
lthumb -3.17857 19.2734
rfemur -21.8139 -2.65976 18.9182
rtibia 35.1031
rfoot -19.7445 -1.6342
rtoes 6.88403
lfemur -20.5801 5.91578 -19.1135
ltibia 31.8274
lfoot -15.9823 9.36895
ltoes 1.48774
472
root 0.175297 17.3322 -6.44195 8.00153 -0.356423 -0.618934
lowerback 3.3822 0.140792 -0.710087
upperback 5.65758 0.144971 1.25007
thorax 3.92968 0.0142036 1.68723
lowerneck -12.1688 0.163214 -1.38632
upperneck 35.0487 0.423303 0.560126
head 13.9459 0.0771635 0.535735
rclavicle -5.96354e-016 -2.18663e-015
rhumerus -41.7693 -22.0956 -67.1502
rradius 25.6537
rwrist 33.0773
rhand -18.2817 -22.6659
rfingers 7.12502
rthumb 7.99844 -52.4946
lclavicle -5.96354e-016 -2.18663e-015
lhumerus -36.3351 4.08394 80.0612
lradius 20.5282
lwrist 14.1833
lhand -29.7595 -10.4068
lfingers 7.12502
lthumb -3.08524 19.5506
rfemur -21.8088 -2.64451 18.9085
rtibia 35.088
rfoot -19.7343 -1.64481
rtoes 6.88905
lfemur -20.573 5.93804 -19.1228
ltibia 31.8093
lfoot -15.9819 9.34544
ltoes 1.51197
473
root 0.176353 17.3328 -6.44337 8.00167 -0.361848 -0.615336
lowerback 3.37722 0.142409 -0.708396
upperback 5.6514 0.147388 1.24302
thorax 3.92592 0.0157031 1.67898
lowerneck -12.1446 0.163989 -1.392
upperneck 35.0409 0.425071 0.561818
head 13.9369 0.0774607 0.537554
rclavicle 2.78299e-015 3.57812e-015
rhumerus -41.7382 -22.0382 -67.2131
rradius 25.7046
rwrist 33.035
rhand -18.3188 -22.6571
rfingers 7.12502
rthumb 7.96267 -52.4871
lclavicle 2.78299e-015 3.57812e-015
lhumerus -36.3212 4.08682 80.0742
lradius 20.5613
lwrist 14.2293
lhand -29.667 -10.1855
lfingers 7.12502
lthumb -2.9959 19.7732
rfemur -21.8067 -2.62896 18.8991
rtibia 35.0737
rfoot -19.723 -1.65461
rtoes 6.88148
lfemur -20.5694 5.96007 -19.1323
ltibia 31.7926
lfoot -15.9798 9.32427
ltoes 1.53181
474
root 0.17733 17.3334 -6.44476 8.00166 -0.368502 -0.616343
lowerback 3.37298 0.144214 -0.702577
upperback 5.64489 0.150065 1.23652
thorax 3.9214 0.0174903 1.66898
lowerneck -12.1217 0.16379 -1.3993
upperneck 35.0308 0.424807 0.566425
head 13.9271 0.0770593 0.540511
rclavicle -1.39149e-015 -2.78299e-015
rhumerus -41.7069 -21.9854 -67.2738
rradius 25.7367
rwrist 33.0328
rhand -18.4121 -22.6313
rfingers 7.12502
rthumb 7.87259 -52.4647
lclavicle -1.39149e-015 -2.78299e-015
lhumerus -36.3126 4.08102 80.0901
lradius 20.5915
lwrist 14.2684
lhand -29.6028 -10.0262
lfingers 7.12502
lthumb -2.93384 19.9334
rfemur -21.8052 -2.61054 18.8951
rtibia 35.0594
rfoot -19.7112 -1.66531
rtoes 6.86465
lfemur -20.5671 5.98184 -19.1362
ltibia 31.7778
lfoot -15.9774 9.30559
ltoes 1.54352
475
root 0.178317 17.3339 -6.44607 8.0013 -0.373389 -0.617403
lowerback 3.36913 0.144202 -0.697292
upperback 5.63845 0.150305 1.23047
thorax 3.91682 0.0180291 1.65974
lowerneck -12.1039 0.163853 -1.40653
upperneck 35.0218 0.425603 0.569211
head 13.919 0.076857 0.542903
rclavicle 2.48481e-015 7.7526e-015
rhumerus -41.6727 -21.9249 -67.3381
rradius 25.7726
rwrist 33.003
rhand -18.4858 -22.6057
rfingers 7.12502
rthumb 7.80151 -52.4418
lclavicle 2.48481e-015 7.7526e-015
lhumerus -36.3081 4.0724 80.1078
lradius 20.6197
lwrist 14.3024
lhand -29.5546 -9.93132
lfingers 7.12502
lthumb -2.8873 20.0289
rfemur -21.8036 -2.59446 18.8914
rtibia 35.046
rfoot -19.7007 -1.67651
rtoes 6.84341
lfemur -20.5656 6.00068 -19.14
ltibia 31.764
lfoot -15.9736 9.2893
ltoes 1.54602
476
root 0.179333 17.3343 -6.44722 7.99929 -0.378128 -0.61824
lowerback 3.36546 0.143446 -0.692275
upperback 5.63263 0.149547 1.2244
thorax 3.91282 0.0180513 1.65064
lowerneck -12.0842 0.164452 -1.4118
upperneck 35.009 0.427625 0.569038
head 13.9088 0.0770638 0.543911
rclavicle 3.18055e-015 1.25234e-014
rhumerus -41.6338 -21.8763 -67.3946
rradius 25.8126
rwrist 32.9201
rhand -18.4865 -22.5791
rfingers 7.12502
rthumb 7.8008 -52.4152
lclavicle 3.18055e-015 1.25234e-014
lhumerus -36.3072 4.05884 80.1285
lradius 20.6384
lwrist 14.3212
lhand -29.5416 -9.93601
lfingers 7.12502
lthumb -2.87477 20.0244
rfemur -21.7998 -2.58138 18.8874
rtibia 35.0337
rfoot -19.6921 -1.68462
rtoes 6.83324
lfemur -20.5621 6.0173 -19.1437
ltibia 31.7511
lfoot -15.9717 9.2736
ltoes 1.54913
